<svg xmlns="http://www.w3.org/2000/svg" aria-hidden="true" style="position:absolute;width:0;height:0;overflow:hidden">
  <defs>
    <symbol id="icon-Logo-6" viewBox="0 0 57 32">
      <path d="M13.285 11.872h-.002c-1.316 0-2.383.962-2.383 2.149v.001c0 1.187 1.067 2.149 2.383 2.149h.002c1.316 0 2.383-.962 2.383-2.149v-.001c0-1.187-1.067-2.149-2.383-2.149zM30.875 11.185c-.004-1.648-.732-3.228-2.024-4.394s-3.045-1.822-4.873-1.826c-1.829.003-3.581.659-4.875 1.825s-2.021 2.746-2.025 4.395v9.089s13.795-1.385 13.797-9.088v-.001zM6.069 23.258c.003 1.147.51 2.246 1.409 3.057s2.118 1.268 3.39 1.272c1.272-.003 2.49-.46 3.39-1.271s1.406-1.91 1.41-3.056v-6.324s-9.599.965-9.599 6.323zm4.799 1.133c-.249 0-.492-.066-.698-.191s-.368-.301-.463-.509-.12-.435-.072-.655c.049-.22.168-.422.344-.58s.4-.266.644-.31c.244-.044.496-.021.726.064s.426.231.564.417a1.055 1.055 0 0 1 .118 1.065 1.133 1.133 0 0 1-.272.369c-.117.106-.256.19-.408.247s-.317.087-.482.087v-.004zM19.646 22.353v2.353h-.485v-2.353h.485zm.938 1.005v.378h-1.07v-.378h1.07zm.113-1.005v.38h-1.183v-.38h1.183zm2.214 1.122v.112c0 .179-.024.339-.073.482s-.117.264-.205.364a.89.89 0 0 1-.317.228 1.007 1.007 0 0 1-.406.079c-.148 0-.283-.026-.406-.079a.918.918 0 0 1-.317-.228 1.073 1.073 0 0 1-.209-.364 1.475 1.475 0 0 1-.073-.482v-.112c0-.18.024-.341.073-.482.049-.142.117-.264.205-.364a.91.91 0 0 1 .317-.23c.123-.053.258-.079.406-.079.149 0 .284.026.406.079a.88.88 0 0 1 .317.23c.089.1.158.221.207.364.05.141.074.302.074.482zm-.489.111v-.115c0-.125-.011-.235-.034-.33s-.056-.175-.1-.239-.098-.113-.162-.145c-.064-.033-.136-.05-.218-.05s-.155.017-.218.05a.433.433 0 0 0-.16.145c-.043.065-.076.144-.099.239s-.034.205-.034.33v.115c0 .124.011.234.034.33a.747.747 0 0 0 .1.241.436.436 0 0 0 .38.197.43.43 0 0 0 .378-.197.77.77 0 0 0 .099-.241c.023-.096.034-.206.034-.33zm2.064.505a.308.308 0 0 0-.019-.113.214.214 0 0 0-.068-.094c-.033-.029-.08-.058-.141-.086s-.138-.057-.234-.087a2.864 2.864 0 0 1-.304-.116 1.235 1.235 0 0 1-.252-.15.683.683 0 0 1-.171-.202.554.554 0 0 1-.061-.267c0-.098.022-.187.065-.267a.606.606 0 0 1 .181-.207.86.86 0 0 1 .275-.134c.107-.031.224-.047.351-.047.173 0 .325.031.454.094s.23.148.301.257a.66.66 0 0 1 .108.373h-.482a.365.365 0 0 0-.044-.181.292.292 0 0 0-.129-.124.463.463 0 0 0-.217-.045.498.498 0 0 0-.21.039.282.282 0 0 0-.126.102.25.25 0 0 0-.042.142c0 .04.01.076.029.108.02.032.051.062.091.09s.089.054.147.079c.058.025.126.049.202.073.128.039.241.082.338.131.098.049.18.103.246.163s.115.129.149.205c.033.077.05.163.05.26a.567.567 0 0 1-.233.48c-.075.056-.165.099-.27.128s-.221.044-.351.044c-.116 0-.231-.015-.344-.045a1.035 1.035 0 0 1-.309-.141c-.092-.063-.165-.142-.22-.239s-.082-.212-.082-.344h.486c0 .073.011.135.034.186s.054.092.095.123a.416.416 0 0 0 .149.068.816.816 0 0 0 .191.021.512.512 0 0 0 .207-.036.258.258 0 0 0 .121-.099.256.256 0 0 0 .04-.142zm1.867-1.738v2.353h-.483v-2.353h.483zm.724 0v.38h-1.92v-.38h1.92zm1.855 1.975v.378h-1.253v-.378h1.253zm-1.094-1.975v2.353h-.485v-2.353h.485zm.931.959v.369H27.68v-.369h1.089zm.162-.959v.38H27.68v-.38h1.251zm.284 0h.878c.18 0 .335.027.464.081.13.054.231.134.301.239s.105.235.105.39a.754.754 0 0 1-.065.325.623.623 0 0 1-.179.225.91.91 0 0 1-.27.142l-.154.081h-.763l-.003-.378h.567c.085 0 .156-.015.212-.045s.098-.072.126-.126a.388.388 0 0 0 .044-.187c0-.075-.014-.141-.042-.196s-.071-.097-.128-.126-.129-.044-.215-.044H29.7v1.974h-.485v-2.353zm1.316 2.354-.537-1.049.512-.003.543 1.03v.023h-.519zm2.546-.839h-.6v-.378h.6a.49.49 0 0 0 .226-.045c.058-.031.101-.074.128-.129s.04-.117.04-.186c0-.07-.013-.135-.04-.196s-.07-.109-.128-.145-.134-.055-.226-.055h-.432v1.974h-.485v-2.353h.917c.184 0 .342.033.474.1a.716.716 0 0 1 .409.672c0 .152-.035.283-.105.394s-.171.197-.304.257c-.131.06-.289.09-.474.09zm2.796.46v.378H34.62v-.378h1.253zm-1.094-1.975v2.353h-.485v-2.353h.485zm.931.959v.369h-1.089v-.369h1.089zm.161-.959v.38H34.62v-.38h1.251zm1.37 0v2.353h-.483v-2.353h.483zm.724 0v.38h-1.92v-.38h1.92zm1.855 1.975v.378h-1.253v-.378h1.253zm-1.094-1.975v2.353h-.485v-2.353h.485zm.931.959v.369h-1.089v-.369h1.089zm.162-.959v.38h-1.251v-.38h1.251zm.284 0h.878c.18 0 .335.027.464.081.13.054.231.134.301.239s.105.235.105.39a.754.754 0 0 1-.065.325.623.623 0 0 1-.179.225.923.923 0 0 1-.27.142l-.154.081h-.763l-.003-.378h.567c.085 0 .156-.015.212-.045s.098-.072.126-.126a.388.388 0 0 0 .044-.187c0-.075-.014-.141-.042-.196s-.071-.097-.128-.126a.473.473 0 0 0-.215-.044h-.393v1.974h-.485v-2.353zm1.316 2.354-.537-1.049.512-.003.543 1.03v.023h-.519zm2.03-.616a.33.33 0 0 0-.019-.113.214.214 0 0 0-.068-.094c-.033-.029-.08-.058-.141-.086s-.138-.057-.234-.087a2.864 2.864 0 0 1-.304-.116 1.235 1.235 0 0 1-.252-.15.683.683 0 0 1-.171-.202.554.554 0 0 1-.061-.267c0-.098.022-.187.065-.267a.606.606 0 0 1 .181-.207.86.86 0 0 1 .275-.134c.107-.031.224-.047.351-.047.173 0 .325.031.454.094s.23.148.301.257a.66.66 0 0 1 .108.373h-.482a.365.365 0 0 0-.044-.181.292.292 0 0 0-.129-.124.463.463 0 0 0-.217-.045.498.498 0 0 0-.21.039.282.282 0 0 0-.126.102.25.25 0 0 0-.042.142c0 .04.01.076.029.108.02.032.051.062.091.09s.089.054.147.079c.058.025.126.049.202.073.128.039.241.082.338.131.098.049.18.103.246.163s.115.129.149.205c.033.077.05.163.05.26a.567.567 0 0 1-.233.48c-.075.056-.165.099-.27.128s-.221.044-.351.044c-.116 0-.231-.015-.344-.045a1.035 1.035 0 0 1-.309-.141c-.092-.063-.165-.142-.22-.239s-.082-.212-.082-.344h.486c0 .073.011.135.034.186s.054.092.095.123a.416.416 0 0 0 .149.068.816.816 0 0 0 .191.021.512.512 0 0 0 .207-.036.258.258 0 0 0 .121-.099.256.256 0 0 0 .04-.142z"/>
    </symbol>
    <symbol id="icon-Logo-2" viewBox="0 0 59 32">
      <path d="M28.636 3.391c.132 0 .273.012.414.024l.041.004c.682.048 1.358.15 2.024.305V2.088a12.089 12.089 0 0 0-2.089-.333c-.267-.02-.552-.033-.844-.041h-.244a16.996 16.996 0 0 0-4.192.541c-1.56.389-3.058.998-4.448 1.809v16.227a18.105 18.105 0 0 1 4.24-1.652 18.54 18.54 0 0 1 3.559-.546h.048c.201-.01.402-.016.609-.017v-1.662c-1.561.02-3.114.226-4.626.615-.559.145-1.1.302-1.607.477l-.578.196V5.05l.247-.119a16.148 16.148 0 0 1 6.009-1.533.451.451 0 0 1 .052 0c.23-.012.461-.017.688-.017h.26c.12.003.24.006.36.013h.078zm2.88 1.673c.363.028.739.041 1.119.041a17.95 17.95 0 0 0 4.407-.565 18.14 18.14 0 0 0 4.238-1.654v15.938a17.068 17.068 0 0 1-4.449 1.809c-1.37.352-2.778.533-4.192.539a12.76 12.76 0 0 1-3.18-.375V4.756c.246.057.499.109.756.153.422.071.867.123 1.301.155zm8.111.123-.578.195c-.532.179-1.068.339-1.608.481a19.61 19.61 0 0 1-4.804.616c-.377 0-.724-.01-1.06-.032l-.461-.03v13.015l.396.035c.367.032.746.048 1.128.048a15.335 15.335 0 0 0 3.783-.49 15.84 15.84 0 0 0 2.956-1.062l.247-.119V5.188zM20.421 25.836a.856.856 0 0 0-.643-.26.953.953 0 0 0-.372.07.828.828 0 0 0-.475.481.957.957 0 0 0-.067.359v2.168a1.03 1.03 0 0 0 .085.445c.051.111.125.21.217.291a.752.752 0 0 0 .298.154c.105.03.214.045.324.045a.906.906 0 0 0 .828-.568.873.873 0 0 0 .069-.346v-.243h-.567v.193a.506.506 0 0 1-.033.193.35.35 0 0 1-.082.122.33.33 0 0 1-.119.062.367.367 0 0 1-.119.02.283.283 0 0 1-.266-.116.512.512 0 0 1-.075-.291v-2.021a.686.686 0 0 1 .069-.324.284.284 0 0 1 .277-.13c.049-.002.097.008.141.03s.082.053.112.092a.461.461 0 0 1 .094.291v.187h.561v-.221a1.022 1.022 0 0 0-.069-.379.893.893 0 0 0-.189-.305zM23.788 25.811a1.005 1.005 0 0 0-.645-.238.976.976 0 0 0-.637.238.886.886 0 0 0-.22.304 1.01 1.01 0 0 0-.082.42v2.079c-.004.146.024.292.082.426a.838.838 0 0 0 .22.291c.087.08.188.143.299.183a.976.976 0 0 0 .982-.183.893.893 0 0 0 .296-.717v-2.079a1.01 1.01 0 0 0-.082-.42.927.927 0 0 0-.214-.304zm-.265 2.803a.377.377 0 0 1-.112.301.414.414 0 0 1-.534 0 .38.38 0 0 1-.112-.301v-2.079a.377.377 0 0 1 .112-.301.414.414 0 0 1 .534 0 .38.38 0 0 1 .112.301v2.079zM28.21 29.543v-3.936h-.545l-.716 2.084h-.01l-.721-2.084h-.539v3.936h.562v-2.395h.01l.551 1.693h.28l.555-1.693h.01v2.395h.562zM31.405 25.882a.785.785 0 0 0-.318-.215 1.254 1.254 0 0 0-.408-.061h-.835v3.936h.561v-1.537h.289c.175.008.349-.029.506-.108a.817.817 0 0 0 .308-.301.94.94 0 0 0 .129-.343c.022-.148.032-.298.03-.448a2.212 2.212 0 0 0-.055-.562.828.828 0 0 0-.207-.362zm-.289 1.2a.49.49 0 0 1-.052.205.313.313 0 0 1-.145.138.574.574 0 0 1-.265.049h-.256v-1.338h.289a.55.55 0 0 1 .253.049.32.32 0 0 1 .132.145.572.572 0 0 1 .049.219v.262c0 .092.006.186 0 .27h-.006zM34.062 25.606h-.46l-.867 3.936h.561l.165-.846h.765l.165.846h.561l-.889-3.936zm-.518 2.555.276-1.427h.01l.275 1.427h-.561zM37.686 27.978h-.01l-.847-2.371h-.539v3.936h.561v-2.367h.012l.857 2.367h.528v-3.936h-.561v2.371zM41.113 25.606l-.451 1.565h-.012l-.451-1.565h-.594l.77 2.273v1.664h.561v-1.664l.77-2.273h-.594zM18.857 30.654h.27v.759h.184v-.759h.269v-.155h-.723v.155zM21.13 30.498l-.354.914h.195l.075-.208h.364l.078.208h.2l-.363-.914h-.195zm-.029.553.124-.339.124.339H21.1zM23.376 31.076h.211v.118a.357.357 0 0 1-.217.077.23.23 0 0 1-.193-.087.39.39 0 0 1-.068-.238c0-.203.088-.305.263-.305a.194.194 0 0 1 .207.145l.181-.035c-.039-.179-.168-.269-.387-.269a.458.458 0 0 0-.319.118.457.457 0 0 0-.131.351.498.498 0 0 0 .117.343.446.446 0 0 0 .347.134.548.548 0 0 0 .387-.145v-.36h-.396v.154zM25.67 30.498h-.185v.914h.64v-.155h-.455v-.759zM27.61 30.498h-.185v.914h.185v-.914zM29.507 31.109l-.374-.61h-.179v.914h.172v-.597l.367.597h.184v-.914h-.169v.61zM31.221 31.01h.455v-.155h-.455v-.201h.49v-.155h-.675v.914h.694v-.155h-.509v-.247zM35.378 30.859h-.36v-.36h-.184v.914h.184v-.4h.36v.4h.184v-.914h-.184v.36zM37.103 31.01h.457v-.155h-.457v-.201h.492v-.155h-.675v.914h.692v-.155h-.509v-.247zM39.442 31.01c.159-.025.24-.109.24-.254a.213.213 0 0 0-.09-.203.516.516 0 0 0-.267-.054h-.387v.914h.184v-.382h.036a.262.262 0 0 1 .114.02c.027.017.049.04.065.067l.2.291h.22l-.111-.179a.642.642 0 0 0-.202-.219zm-.185-.126h-.136v-.23h.145a.476.476 0 0 1 .187.022.117.117 0 0 1 .04.095c-.001.018-.006.035-.014.051s-.02.029-.035.04a.536.536 0 0 1-.187.022zM41.206 31.01h.455v-.155h-.455v-.201h.492v-.155h-.676v.914h.694v-.155h-.509v-.247z"/>
    </symbol>
    <symbol id="icon-Logo-3" viewBox="0 0 59 32">
      <path d="M21.034 28.128c.009 0 .018.002.027.005s.016.008.022.014l.126.119a1.034 1.034 0 0 1-.355.225 1.4 1.4 0 0 1-.503.081 1.348 1.348 0 0 1-.473-.076 1.044 1.044 0 0 1-.357-.213.935.935 0 0 1-.23-.329 1.08 1.08 0 0 1-.08-.422 1.006 1.006 0 0 1 .087-.423.99.99 0 0 1 .244-.329 1.14 1.14 0 0 1 .379-.214c.155-.051.321-.077.487-.076.155-.003.309.02.453.069.125.046.24.111.339.19l-.106.127a.087.087 0 0 1-.027.023.07.07 0 0 1-.043.009.107.107 0 0 1-.046-.014l-.057-.034-.079-.043a.9.9 0 0 0-.25-.076 1.181 1.181 0 0 0-.538.043.73.73 0 0 0-.452.412.857.857 0 0 0-.065.334c-.002.116.02.23.065.34a.73.73 0 0 0 .437.408.96.96 0 0 0 .325.054c.064.001.129-.003.192-.011a.784.784 0 0 0 .417-.174.105.105 0 0 1 .06-.022zM24.678 27.532c.002.143-.027.285-.085.419-.051.122-.132.233-.238.326s-.232.166-.373.214c-.309.101-.65.101-.959 0a1.127 1.127 0 0 1-.371-.214.956.956 0 0 1-.24-.329 1.074 1.074 0 0 1 0-.84.982.982 0 0 1 .24-.33c.106-.09.232-.16.371-.206.308-.102.651-.102.959 0 .14.049.267.122.372.214a.958.958 0 0 1 .323.747zm-.331 0a.892.892 0 0 0-.06-.337.687.687 0 0 0-.436-.411 1.122 1.122 0 0 0-.697 0 .747.747 0 0 0-.267.159.678.678 0 0 0-.17.252.976.976 0 0 0 0 .674.703.703 0 0 0 .437.41c.225.072.472.072.697 0a.7.7 0 0 0 .436-.41.873.873 0 0 0 .06-.337zM27.164 27.885l.033.076.036-.076a.768.768 0 0 1 .041-.074l.806-1.252c.016-.022.03-.035.046-.039a.21.21 0 0 1 .066-.007h.238v2.036h-.282v-1.56a.41.41 0 0 1 0-.07l-.811 1.269c-.01.019-.027.035-.047.046s-.045.017-.069.017h-.046c-.025 0-.049-.006-.069-.017s-.037-.027-.047-.047l-.834-1.277V28.545h-.273v-2.032h.238a.21.21 0 0 1 .066.007c.02.008.035.022.044.039l.823 1.253c.016.023.03.047.041.073zM30.197 27.784v.763h-.316v-2.034h.704a1.57 1.57 0 0 1 .393.044.793.793 0 0 1 .278.127.53.53 0 0 1 .158.199.619.619 0 0 1 .054.26.56.56 0 0 1-.228.463.822.822 0 0 1-.279.135 1.347 1.347 0 0 1-.38.047l-.382-.005zm0-.218h.382a.907.907 0 0 0 .244-.031.554.554 0 0 0 .177-.088.38.38 0 0 0 .145-.306c.004-.057-.007-.113-.032-.166s-.062-.1-.11-.139a.69.69 0 0 0-.424-.109h-.382v.838zM34.437 28.549h-.249a.116.116 0 0 1-.11-.066l-.215-.492h-1.077l-.222.492a.115.115 0 0 1-.11.066h-.249l.946-2.036h.328l.959 2.036zm-1.562-.756h.89l-.375-.829a1.33 1.33 0 0 1-.071-.191l-.036.106a.95.95 0 0 1-.035.086l-.372.828zM35.8 26.522a.131.131 0 0 1 .047.036l1.38 1.535v-1.58h.282v2.036h-.158a.16.16 0 0 1-.065-.012.161.161 0 0 1-.05-.038l-1.379-1.534a.41.41 0 0 1 0 .07v1.514h-.282v-2.036h.167a.18.18 0 0 1 .057.009zM39.834 27.739v.809h-.316v-.809l-.872-1.226h.282a.116.116 0 0 1 .068.018.187.187 0 0 1 .043.046l.546.791c.022.034.041.065.057.094s.028.058.039.086l.041-.088a.624.624 0 0 1 .054-.093l.538-.797a.208.208 0 0 1 .041-.043.107.107 0 0 1 .068-.02h.285l-.874 1.232zM27.008 23.095c.137.015.276.027.416.038 2.128-.813 3.929-2.145 5.176-3.828s1.887-3.643 1.838-5.634l-2.346-2.004c.477 2.12.254 4.313-.644 6.331s-2.436 3.783-4.441 5.098z"/>
      <path d="m26.17 23.002.063.011c2.143-1.31 3.776-3.138 4.69-5.25s1.064-4.408.433-6.594l-3.341-2.854c1.351 2.346 1.895 4.972 1.568 7.572s-1.511 5.067-3.414 7.115zM37.5 16.024c-.568 2.188-1.946 4.162-3.931 5.628-.58.43-1.205.814-1.868 1.145 1.616-.406 3.102-1.123 4.342-2.097s2.202-2.178 2.812-3.52L37.5 16.024z"/>
      <path d="m36.968 15.702-1.929-1.648c-.037 1.879-.662 3.716-1.811 5.318s-2.779 2.914-4.721 3.796h.009c.433 0 .865-.022 1.295-.066 1.815-.633 3.418-1.64 4.667-2.931s2.104-2.826 2.489-4.469zM26.449 7.112l-2.301-1.969c-2.057.679-3.827 1.873-5.077 3.426s-1.922 3.392-1.928 5.276c.008 2.082.828 4.103 2.331 5.742s3.603 2.803 5.967 3.308c2.111-2.197 3.346-4.912 3.528-7.75s-.701-5.652-2.52-8.032zM42.286 15.399c-.008-2.47-1.161-4.838-3.205-6.585s-4.815-2.731-7.707-2.739a12.47 12.47 0 0 0-3.907.621l14.09 12.039a8.056 8.056 0 0 0 .729-3.337z"/>
    </symbol>
    <symbol id="icon-Logo-4" viewBox="0 0 59 32">
      <path d="M15.31 25.356c.14.156.215.352.211.553.007.131-.018.262-.075.383s-.143.229-.252.316c-.273.185-.61.276-.951.255h-1.671v-3.504h1.637c.323-.019.644.063.907.233.106.08.19.18.245.294s.08.238.073.361a.76.76 0 0 1-.19.536.91.91 0 0 1-.498.274.975.975 0 0 1 .565.3zm-1.961-.529h.7a.719.719 0 0 0 .445-.116c.053-.043.093-.096.12-.155s.037-.123.031-.187a.397.397 0 0 0-.148-.342.733.733 0 0 0-.458-.118h-.688v.919zm1.213 1.344c.056-.044.1-.099.129-.161s.041-.129.036-.195c.004-.068-.009-.135-.038-.198s-.074-.118-.131-.162a.786.786 0 0 0-.475-.127h-.734v.964h.743a.794.794 0 0 0 .47-.122zM18.656 26.862l-.911-1.369h-.342v1.369h-.783v-3.504h1.483a1.57 1.57 0 0 1 1.032.298c.207.19.332.441.353.707s-.066.529-.242.743a1.245 1.245 0 0 1-.707.356l.97 1.4h-.852zm-1.253-1.847h.641c.445 0 .668-.177.668-.531.005-.072-.008-.145-.036-.212s-.072-.13-.128-.181a.75.75 0 0 0-.504-.142h-.648l.008 1.067zM22.939 26.157h-1.561l-.276.705h-.821l1.434-3.465h.888l1.428 3.465h-.822l-.27-.705zm-.21-.53-.57-1.479-.57 1.479h1.141zM28.299 26.863h-.778l-1.744-2.383v2.383h-.776v-3.504h.776l1.744 2.397v-2.397h.778v3.504zM32.737 26.024c-.161.265-.406.48-.704.618-.339.154-.714.23-1.093.221h-1.384v-3.504h1.384c.378-.009.754.065 1.093.216.298.135.543.348.704.611.16.285.243.6.243.919s-.083.634-.243.919zm-.89-.084c.222-.233.344-.529.344-.836s-.122-.603-.344-.836a1.448 1.448 0 0 0-.974-.298h-.54v2.268h.54c.355.02.705-.087.974-.298zM23.425 3.867s10.038 3.412 9.825 8.349v8.351s-10.031-3.413-9.821-8.351l-.004-8.349zM42.194 18.611c1.896-1.175 4.089-1.902 6.378-2.116v-2.614c-2.638.915-4.875 2.575-6.378 4.73z"/>
      <path d="M41.055 19.399c1.552-2.813 4.242-4.983 7.517-6.065V5.802s-14.296 4.86-13.993 11.891v11.889s.637-.217 1.639-.625c0-.38 0-.764.046-1.149.296-3.264 2.02-6.289 4.792-8.409z"/>
      <path d="M39.695 23.815c.075-.825.243-1.64.5-2.434-1.726 1.831-2.772 4.103-2.989 6.497-.021.226-.032.452-.038.685a43.581 43.581 0 0 0 2.75-1.304 11.103 11.103 0 0 1-.222-3.443zM40.264 23.858a10.594 10.594 0 0 0 .177 3.117c3.906-2.104 8.294-5.355 8.125-9.284v-.342c-2.791.281-5.401 1.379-7.431 3.126a10.75 10.75 0 0 0-.871 3.383z"/>
    </symbol>
    <symbol id="icon-Logo-5" viewBox="0 0 59 32">
      <path d="M30.588 15.682a1.685 1.685 0 0 1-.346-1.138v-1.65c0-.506.115-.89.344-1.153s.624-.394 1.183-.393c.525 0 .898.112 1.119.336.24.286.358.635.331.987v.388h-.94v-.393a2.056 2.056 0 0 0-.027-.384.373.373 0 0 0-.134-.228.541.541 0 0 0-.34-.089.577.577 0 0 0-.358.094.443.443 0 0 0-.156.252 1.93 1.93 0 0 0-.037.408v2.003c-.015.193.027.387.121.562.047.06.112.107.188.136s.16.041.242.032c.12.009.24-.024.333-.091a.4.4 0 0 0 .14-.243 2.16 2.16 0 0 0 .029-.401v-.406h.94v.371c.026.367-.088.732-.325 1.038-.216.245-.584.368-1.125.368s-.949-.131-1.181-.403zM34.501 15.699c-.237-.257-.356-.631-.356-1.127v-1.736c0-.49.119-.861.356-1.113s.634-.377 1.191-.376c.553 0 .947.125 1.185.376.237.252.358.623.358 1.113v1.736c0 .49-.121.866-.362 1.125s-.634.388-1.181.388-.951-.131-1.191-.386zm1.628-.417a.968.968 0 0 0 .113-.514v-2.125a.943.943 0 0 0-.111-.504c-.048-.061-.114-.109-.192-.138s-.164-.04-.248-.03c-.084-.01-.17 0-.248.03s-.145.077-.193.138a.922.922 0 0 0-.113.504v2.136a.95.95 0 0 0 .113.514c.055.054.122.098.198.127a.68.68 0 0 0 .484 0 .59.59 0 0 0 .198-.127v-.01zM38.364 11.398h1.012l.761 3.203.778-3.203h.984l.099 4.623h-.728l-.078-3.213-.751 3.213h-.584l-.778-3.225-.072 3.225h-.735l.091-4.623zM43.133 11.398h1.576c.908 0 1.362.438 1.362 1.313 0 .838-.478 1.257-1.434 1.256H44.1v2.055h-.973l.006-4.623zm1.346 1.976c.096.011.194.003.286-.022s.177-.067.249-.124a.744.744 0 0 0 .14-.522 1.457 1.457 0 0 0-.047-.42c-.014-.046-.038-.089-.072-.127s-.075-.069-.123-.093a1.012 1.012 0 0 0-.434-.074h-.377v1.382h.377zM47.474 11.398h1.045l1.072 4.623h-.907l-.212-1.066h-.932l-.218 1.066h-.92l1.072-4.623zm.893 3.021-.364-1.941-.364 1.941h.728zM50.456 11.398h.681l1.304 2.637v-2.637h.807v4.623H52.6l-1.311-2.753v2.753h-.835l.002-4.623zM55.139 14.258l-1.084-2.854h.912l.661 1.833.621-1.833h.893l-1.07 2.854v1.763h-.934v-1.763zM32.09 18.042v.242h-.794v1.879h-.333v-1.879h-.798v-.242h1.924zM34.578 20.163h-.257a.119.119 0 0 1-.072-.02.113.113 0 0 1-.043-.049l-.23-.504h-1.101l-.23.504a.147.147 0 0 1-.035.057.119.119 0 0 1-.072.02h-.257l.973-2.12h.339l.984 2.112zm-1.61-.788h.918l-.389-.863a1.447 1.447 0 0 1-.072-.2l-.037.113-.035.089-.385.861zM36.256 19.954c.061.003.122.003.183 0 .053-.005.105-.013.156-.025.048-.01.094-.023.14-.039.043-.015.086-.034.13-.052v-.477h-.389c-.01 0-.019-.001-.028-.004a.07.07 0 0 1-.039-.03.038.038 0 0 1-.005-.021v-.163h.755v.813a1.497 1.497 0 0 1-.654.217 2.687 2.687 0 0 1-.284.013 1.497 1.497 0 0 1-.49-.079 1.178 1.178 0 0 1-.389-.222 1.028 1.028 0 0 1-.251-.336 1.07 1.07 0 0 1-.09-.44 1.099 1.099 0 0 1 .088-.443.97.97 0 0 1 .251-.336 1.19 1.19 0 0 1 .389-.22c.167-.054.343-.081.521-.079.091 0 .181.006.27.018a1.273 1.273 0 0 1 .595.249l-.093.131c-.007.012-.018.022-.032.029s-.029.011-.044.011a.123.123 0 0 1-.06-.017 1.127 1.127 0 0 1-.095-.05.947.947 0 0 0-.13-.057 1.208 1.208 0 0 0-.426-.065 1.165 1.165 0 0 0-.376.059.835.835 0 0 0-.286.168.734.734 0 0 0-.181.264.99.99 0 0 0 0 .707c.043.1.109.191.195.267.08.073.177.13.284.168.124.037.255.051.385.042zM39.357 19.921h1.062v.242h-1.387v-2.12h.333l-.008 1.879zM41.524 20.162h-.333v-2.12h.333v2.12zM42.761 18.052c.02.01.037.023.051.039l1.422 1.598a.482.482 0 0 1 0-.076V18.033h.29v2.129h-.167a.146.146 0 0 1-.072-.012.211.211 0 0 1-.053-.04l-1.42-1.597v1.649h-.278v-2.12h.173a.14.14 0 0 1 .054.01zM46.974 18.042v.233h-1.179v.7h.955v.225h-.955v.724h1.179v.233h-1.521v-2.115h1.521zM12.112 4.948l14.772 3.619V21.25l-14.772-3.618V4.947zm-.948-1.081v14.382l16.666 4.084V7.953L11.164 3.867z"/>
      <path d="M20.096 29.01 3.429 24.922V10.541l16.667 4.086v14.382z"/>
      <path d="m11.44 4.785 14.58 3.574-6.2 5.352-14.582-3.576 6.202-5.35zm-.276-.918-7.735 6.675 16.667 4.086 7.733-6.675-16.666-4.086zM21.034 28.201l6.796-5.866-6.796-1.667V28.2z"/>
    </symbol>
    <symbol id="icon-Logo" viewBox="0 0 59 32">
      <path d="m21.714 4 4.004 3.815-7.433-.004v18.51h19.429v-7.077l4 3.811V4.001h-20zm15.824 14.796L26.184 7.979h11.354v10.817zm-3.525 4.817H21.36V11.164h.894V22.77h11.759v.843zm-10.13 6.136.472-.97h.388l-.684 1.284v.748h-.353v-.748l-.684-1.284h.389l.472.97zm1.739-.969h.084l.767 2.031h-.368l-.164-.476h-.786l-.164.476h-.367l.765-2.031h.234zm-.373 1.278h.595l-.298-.862-.297.862zm2.455-.337c-.07.05-.133.1-.188.15-.059.054-.106.113-.141.176s-.052.135-.052.218c0 .112.026.211.08.297s.13.154.229.204a.779.779 0 0 0 .35.074.93.93 0 0 0 .315-.053.753.753 0 0 0 .208-.114l.118.139h.389l-.298-.351a.878.878 0 0 0 .149-.335c.019-.088.029-.182.029-.28h-.29a.805.805 0 0 1-.088.379l-.402-.475.141-.103c.054-.039.101-.08.142-.124s.073-.092.096-.145a.439.439 0 0 0-.199-.562.531.531 0 0 0-.266-.063c-.107 0-.2.021-.28.063-.08.041-.142.099-.186.176a.538.538 0 0 0-.023.474c.029.065.069.131.121.2l.044.057zm.167.204.452.532a.525.525 0 0 1-.328.116c-.072 0-.133-.014-.183-.042s-.087-.067-.113-.116a.346.346 0 0 1-.027-.243.325.325 0 0 1 .046-.1.529.529 0 0 1 .11-.116l.042-.031zm.08-.371-.023-.029c-.037-.048-.066-.094-.088-.138a.29.29 0 0 1-.008-.249.202.202 0 0 1 .074-.087.21.21 0 0 1 .12-.034c.068 0 .12.02.158.061s.056.086.056.134c0 .057-.013.104-.038.142s-.067.075-.126.114l-.125.084zm3.554.596c-.011.133-.048.252-.112.356s-.152.185-.266.244-.253.089-.417.089a.752.752 0 0 1-.597-.259c-.072-.084-.127-.185-.165-.303s-.056-.25-.056-.396v-.169c0-.146.019-.278.057-.396s.095-.219.167-.303a.731.731 0 0 1 .261-.194.846.846 0 0 1 .345-.067c.162 0 .299.03.41.089s.198.142.259.247c.062.105.1.226.114.361h-.349c-.009-.087-.03-.162-.061-.225s-.076-.11-.137-.142a.482.482 0 0 0-.237-.05c-.08 0-.15.015-.209.045s-.109.073-.149.131c-.04.058-.07.129-.091.213s-.029.18-.029.287v.172c0 .102.009.195.026.279s.046.154.084.213c.038.06.087.106.145.138s.129.049.211.049c.1 0 .18-.016.241-.047s.109-.078.141-.138a.615.615 0 0 0 .064-.225h.349zm1.938-.299v-.112c0-.153-.02-.291-.061-.412s-.097-.226-.172-.311c-.074-.087-.163-.152-.266-.197s-.218-.068-.343-.068c-.125 0-.239.023-.342.068s-.191.11-.266.197c-.074.086-.132.189-.173.311s-.061.258-.061.412v.112c0 .154.02.291.061.413s.1.226.176.311a.767.767 0 0 0 .608.264c.126 0 .24-.022.343-.067s.192-.111.265-.197c.074-.086.132-.189.172-.311s.06-.259.06-.413zm-.351-.114v.114c0 .113-.011.214-.033.301s-.053.161-.095.222c-.042.059-.093.105-.153.135s-.13.045-.208.045c-.077 0-.146-.015-.206-.045s-.113-.076-.156-.135c-.043-.06-.075-.134-.098-.222s-.033-.188-.033-.301v-.114c0-.113.011-.213.033-.3s.054-.16.096-.219a.421.421 0 0 1 .361-.18c.077 0 .147.015.208.046.061.03.113.074.155.134s.075.132.096.219c.022.087.033.186.033.3z"/>
    </symbol>
  </defs>
</svg>
